<svg width="1967" height="1968" xmlns="http://www.w3.org/2000/svg" xmlns:xlink="http://www.w3.org/1999/xlink" xml:space="preserve" overflow="hidden"><defs><clipPath id="clip0"><rect x="1217" y="254" width="1967" height="1968"/></clipPath></defs><g clip-path="url(#clip0)" transform="translate(-1217 -254)"><path d="M1217 254 3183 254 3183 2221 1217 2221Z" fill="#083153" fill-rule="evenodd"/><path d="M2174.5 498.092 2229.21 498.092 2270.49 500.973 2310.8 505.775 2338.63 510.578 2375.11 518.261 2407.74 526.905 2441.33 537.47 2470.13 548.035 2499.88 560.521 2524.84 572.046 2549.79 584.531 2571.87 597.017 2598.74 613.345 2613.14 622.949 2628.5 633.514 2641.94 643.119 2658.25 655.604 2679.37 672.892 2689.93 682.496 2700.49 691.141 2713.92 704.587 2721.6 711.31 2735.04 724.756 2741.76 732.439 2750.4 741.084 2757.11 748.767 2768.63 762.213 2782.07 778.54 2802.23 805.433 2817.58 827.523 2828.14 843.851 2842.54 867.862 2850.22 881.308 2861.74 902.438 2874.21 928.37 2884.77 952.38 2895.33 979.273 2906.85 1011.93 2917.4 1048.42 2923.16 1071.48 2930.84 1108.93 2936.6 1147.35 2940.44 1183.85 2942.36 1220.34 2942.36 1263.56 2939.48 1306.78 2935.64 1339.44 2929.88 1374.97 2921.24 1415.31 2911.65 1450.85 2900.13 1486.39 2886.69 1520.96 2871.33 1555.54 2863.65 1571.87 2854.06 1590.11 2840.62 1614.12 2828.14 1634.29 2810.86 1660.23 2799.35 1676.55 2790.71 1688.08 2780.15 1701.52 2767.67 1716.89 2758.07 1727.46 2749.44 1738.02 2740.8 1746.67 2739.84 1748.59 2737.92 1748.59 2736 1752.43 2712 1776.44 2704.32 1783.16 2689.93 1796.61 2679.37 1805.25 2666.89 1815.82 2638.1 1837.91 2619.86 1850.39 2599.7 1863.84 2582.43 1874.4 2566.11 1884.01 2543.08 1896.49 2524.84 1906.1 2493.17 1920.5 2461.49 1932.99 2419.26 1947.4 2384.71 1957 2355.91 1963.72 2319.44 1970.45 2275.29 1976.21 2236.89 1979.09 2165.87 1979.09 2127.47 1976.21 2091 1971.41 2057.41 1965.65 2022.85 1957.96 1994.06 1950.28 1963.34 1940.67 1934.55 1930.11 1906.72 1918.58 1879.84 1906.1 1849.13 1890.73 1822.25 1875.36 1799.22 1860.96 1775.22 1844.63 1761.78 1835.03 1749.31 1825.42 1735.87 1814.86 1723.39 1804.29 1712.83 1795.65 1697.48 1781.24 1685.96 1770.68 1661.96 1746.67 1655.24 1738.98 1644.69 1727.46 1636.05 1716.89 1625.49 1704.41 1613.01 1688.08 1598.61 1668.87 1586.14 1650.62 1575.58 1634.29 1565.02 1617.01 1550.62 1592.03 1538.15 1568.02 1529.51 1548.81 1522.79 1534.41 1512.23 1509.44 1501.67 1480.62 1493.03 1453.73 1485.36 1426.84 1478.64 1398.03 1470.96 1357.69 1466.16 1322.15 1463.28 1293.34 1461.36 1259.72 1461.36 1213.62 1463.28 1180.97 1467.12 1144.47 1470.96 1118.54 1477.68 1083 1490.15 1033.06 1501.67 996.561 1515.11 961.024 1527.59 932.211 1536.23 913.002 1545.82 894.754 1554.46 878.427 1569.82 852.495 1584.22 829.444 1594.77 814.077 1604.37 800.631 1617.81 783.343 1628.37 769.897 1639.89 756.45 1646.6 748.767 1655.24 739.162 1661.96 731.479 1698.43 694.982 1706.11 688.259 1715.71 679.615 1726.27 670.971 1738.75 660.406 1751.22 650.802 1770.42 636.395 1804.97 613.345 1825.13 600.859 1845.29 589.334 1864.48 578.769 1886.56 568.204 1916.31 554.758 1953.75 540.351 1982.54 530.747 2013.26 522.103 2044.93 514.419 2080.44 507.696 2107.32 503.854 2132.27 500.973Z" fill="#FDFDFC" fill-rule="evenodd"/><path d="M1217 1263.38 1217.96 1263.38 1220.84 1310.46 1225.64 1359.47 1231.4 1399.82 1239.09 1440.18 1247.73 1477.66 1257.33 1513.21 1269.82 1553.57 1286.14 1597.77 1300.55 1632.36 1317.83 1669.83 1327.44 1688.09 1339.92 1712.11 1353.37 1735.17 1365.85 1756.31 1376.41 1772.65 1389.86 1792.83 1400.42 1808.2 1412.91 1825.5 1426.35 1842.79 1436.91 1856.24 1448.44 1869.7 1457.08 1880.27 1466.68 1890.84 1473.41 1898.52 1482.05 1908.13 1492.61 1918.7 1499.34 1926.39 1519.5 1946.57 1527.19 1953.29 1534.87 1960.98 1542.55 1967.71 1552.15 1976.35 1562.72 1985 1572.32 1993.65 1591.53 2009.02 1607.85 2021.52 1626.1 2034.97 1645.31 2048.42 1662.59 2059.95 1683.72 2073.4 1702.92 2084.93 1723.09 2096.47 1746.14 2108.96 1764.39 2118.57 1791.27 2131.06 1817.2 2142.59 1843.13 2153.16 1879.62 2166.61 1918.04 2179.1 1960.29 2190.63 2006.39 2201.2 2049.6 2208.89 2086.09 2213.69 2125.47 2217.54 2161 2220.42 2161 2221.38 1217 2221.38Z" fill="#FDFDFC" fill-rule="evenodd"/><path d="M3182.78 1281.39 3183.74 1281.39 3183.74 2221.39 2233.74 2221.39 2233.74 2220.43 2275.96 2217.55 2322.98 2212.74 2368.08 2206.02 2408.38 2198.34 2448.69 2188.74 2488.99 2177.22 2524.5 2165.7 2553.28 2155.13 2579.19 2144.57 2607.98 2132.09 2635.81 2118.65 2651.16 2110.97 2675.15 2098.49 2695.3 2086.96 2719.29 2072.56 2743.28 2057.2 2761.52 2044.72 2777.83 2033.19 2796.06 2019.75 2809.5 2009.19 2824.85 1996.71 2835.41 1988.07 2845 1979.42 2855.56 1970.78 2862.27 1964.06 2869.95 1957.34 2877.63 1949.66 2885.3 1942.94 2910.25 1917.97 2916.97 1910.29 2923.69 1903.57 2930.41 1895.89 2940.96 1884.37 2949.6 1873.81 2961.11 1860.36 2971.67 1846.92 2985.1 1829.64 2998.54 1811.4 3013.89 1789.31 3028.28 1767.23 3039.8 1748.99 3053.23 1725.94 3062.83 1708.66 3069.55 1697.14 3077.22 1681.77 3093.54 1648.17 3106.01 1619.36 3116.57 1593.44 3127.12 1564.63 3142.48 1517.59 3153.99 1475.34 3162.63 1436.93 3170.3 1395.65 3176.06 1354.36 3180.86 1306.35Z" fill="#FDFDFC" fill-rule="evenodd"/><path d="M1217 254 2159 254 2159 254.961 2138.84 256.882 2091.78 260.725 2054.33 265.528 2014.96 272.252 1974.63 280.898 1940.06 289.544 1907.42 299.15 1862.28 314.521 1827.72 327.97 1800.83 339.497 1772.02 352.946 1739.37 369.277 1695.2 394.254 1655.83 419.231 1640.47 429.798 1624.14 441.326 1605.9 454.775 1592.46 465.342 1577.09 477.831 1566.53 486.476 1552.13 498.965 1532.92 516.256 1516.6 531.627 1484.91 563.328 1478.19 571.013 1466.66 583.502 1443.62 610.399 1433.06 623.849 1421.53 638.258 1408.09 656.511 1395.61 673.802 1381.2 694.936 1367.76 716.071 1351.43 742.969 1337.99 766.985 1326.47 789.08 1316.87 807.332 1304.38 834.23 1291.9 863.049 1277.5 900.515 1266.93 930.295 1255.41 968.72 1244.85 1009.07 1234.28 1058.06 1227.56 1099.37 1223.72 1131.07 1219.88 1176.22 1217.96 1206 1217 1206Z" fill="#FDFDFC" fill-rule="evenodd"/><path d="M2241.39 254 3183.39 254 3183.39 1203 3182.43 1203 3178.58 1149.21 3173.78 1105.99 3168.02 1068.53 3160.34 1029.14 3150.74 987.842 3140.17 951.342 3132.49 927.329 3121.93 896.592 3109.45 864.895 3097.92 838 3084.48 809.184 3067.2 774.605 3054.71 752.513 3041.27 729.461 3028.79 709.29 3007.66 677.592 2996.14 661.263 2982.69 643.013 2973.09 630.526 2960.61 615.158 2951.97 604.592 2940.44 591.145 2929.88 579.619 2923.16 571.934 2908.76 556.566 2872.27 520.066 2864.58 513.342 2850.18 499.895 2839.62 491.25 2826.17 479.724 2799.29 458.592 2783.92 447.066 2767.6 435.539 2745.51 420.171 2726.31 407.684 2706.14 395.198 2683.1 381.75 2660.05 369.263 2641.81 359.658 2620.68 349.092 2590.91 335.645 2567.87 326.04 2535.22 313.553 2492.97 299.145 2445.92 285.697 2405.59 276.092 2371.02 269.368 2325.89 262.645 2289.4 258.803 2251.95 255.921 2241.39 254.96Z" fill="#FDFDFC" fill-rule="evenodd"/><path d="M2114.9 754.187 2139.88 754.187 2159.09 758.02 2178.3 763.769 2196.55 770.476 2200.4 772.393 2205.2 771.435 2219.61 765.686 2236.9 759.936 2258.04 755.145 2264.76 754.187 2288.78 754.187 2307.99 758.02 2362.75 774.309 2392.53 781.017 2423.27 785.808 2457.85 789.64 2469.38 790.599 2470.34 795.39 2470.34 835.634 2469.38 903.666 2469.38 1051.23 2468.42 1052.19 2444.4 1052.19 2413.66 1048.35 2372.35 1040.69 2330.08 1031.11 2310.87 1028.23 2298.38 1027.27 2277.25 1027.27 2257.07 1029.19 2235.94 1033.98 2218.65 1039.73 2203.28 1047.4 2198.48 1046.44 2184.07 1039.73 2174.46 1035.9 2151.4 1030.15 2137.95 1028.23 2125.47 1027.27 2105.29 1027.27 2083.2 1029.19 2055.34 1034.94 2016.91 1043.56 1990.98 1048.35 1956.39 1052.19 1934.3 1052.19 1933.34 1051.23 1933.34 791.557 1934.3 790.599 1972.72 786.766 2005.39 781.975 2039.97 774.309 2098.57 757.062Z" fill="#083254" fill-rule="evenodd"/><path d="M2174.5 498.092 2229.21 498.092 2270.49 500.973 2310.8 505.775 2338.63 510.578 2375.11 518.261 2407.74 526.905 2441.33 537.47 2470.13 548.035 2499.88 560.521 2524.84 572.046 2549.79 584.531 2571.87 597.017 2598.74 613.345 2613.14 622.949 2628.5 633.514 2641.94 643.119 2658.25 655.604 2679.37 672.892 2689.93 682.496 2700.49 691.141 2713.92 704.587 2721.6 711.31 2735.04 724.756 2741.76 732.439 2750.4 741.084 2757.11 748.767 2768.63 762.213 2782.07 778.54 2802.23 805.433 2817.58 827.523 2828.14 843.851 2842.54 867.862 2850.22 881.308 2861.74 902.438 2874.21 928.37 2884.77 952.38 2895.33 979.273 2906.85 1011.93 2917.4 1048.42 2923.16 1071.48 2930.84 1108.93 2936.6 1147.35 2940.44 1183.85 2942.36 1220.34 2942.36 1263.56 2939.48 1306.78 2935.64 1339.44 2929.88 1374.97 2921.24 1415.31 2911.65 1450.85 2900.13 1486.39 2886.69 1520.96 2871.33 1555.54 2863.65 1571.87 2854.06 1590.11 2840.62 1614.12 2828.14 1634.29 2810.86 1660.23 2799.35 1676.55 2790.71 1688.08 2780.15 1701.52 2767.67 1716.89 2758.07 1727.46 2749.44 1738.02 2740.8 1746.67 2739.84 1748.59 2737.92 1748.59 2736 1752.43 2712 1776.44 2704.32 1783.16 2689.93 1796.61 2679.37 1805.25 2666.89 1815.82 2638.1 1837.91 2619.86 1850.39 2599.7 1863.84 2582.43 1874.4 2566.11 1884.01 2543.08 1896.49 2524.84 1906.1 2493.17 1920.5 2461.49 1932.99 2419.26 1947.4 2384.71 1957 2355.91 1963.72 2319.44 1970.45 2275.29 1976.21 2236.89 1979.09 2165.87 1979.09 2127.47 1976.21 2091 1971.41 2057.41 1965.65 2022.85 1957.96 1994.06 1950.28 1963.34 1940.67 1934.55 1930.11 1906.72 1918.58 1879.84 1906.1 1849.13 1890.73 1822.25 1875.36 1799.22 1860.96 1775.22 1844.63 1761.78 1835.03 1749.31 1825.42 1735.87 1814.86 1723.39 1804.29 1712.83 1795.65 1697.48 1781.24 1685.96 1770.68 1661.96 1746.67 1655.24 1738.98 1644.69 1727.46 1636.05 1716.89 1625.49 1704.41 1613.01 1688.08 1598.61 1668.87 1586.14 1650.62 1575.58 1634.29 1565.02 1617.01 1550.62 1592.03 1538.15 1568.02 1529.51 1548.81 1522.79 1534.41 1512.23 1509.44 1501.67 1480.62 1493.03 1453.73 1485.36 1426.84 1478.64 1398.03 1470.96 1357.69 1466.16 1322.15 1463.28 1293.34 1461.36 1259.72 1461.36 1213.62 1463.28 1180.97 1467.12 1144.47 1470.96 1118.54 1477.68 1083 1490.15 1033.06 1501.67 996.561 1515.11 961.024 1527.59 932.211 1536.23 913.002 1545.82 894.754 1554.46 878.427 1569.82 852.495 1584.22 829.444 1594.77 814.077 1604.37 800.631 1617.81 783.343 1628.37 769.897 1639.89 756.45 1646.6 748.767 1655.24 739.162 1661.96 731.479 1698.43 694.982 1706.11 688.259 1715.71 679.615 1726.27 670.971 1738.75 660.406 1751.22 650.802 1770.42 636.395 1804.97 613.345 1825.13 600.859 1845.29 589.334 1864.48 578.769 1886.56 568.204 1916.31 554.758 1953.75 540.351 1982.54 530.747 2013.26 522.103 2044.93 514.419 2080.44 507.696 2107.32 503.854 2132.27 500.973ZM2167.79 525.945 2128.43 528.826 2091 533.628 2063.17 538.43 2028.61 546.114 2003.66 552.837 1975.82 561.481 1948.95 571.085 1921.11 582.611 1895.2 594.136 1864.48 609.503 1844.33 621.028 1820.33 635.435 1803.06 646.96 1787.7 657.525 1775.22 667.129 1759.86 678.655 1747.39 689.219 1736.83 697.864 1726.27 707.468 1718.59 714.191 1707.07 724.756 1680.2 751.648 1673.48 759.332 1661 773.738 1649.48 787.185 1637.01 802.552 1627.41 815.998 1613.97 835.207 1606.29 846.732 1594.77 864.98 1582.3 886.11 1574.62 899.556 1561.18 925.488 1550.62 948.539 1542.94 966.787 1532.39 994.64 1519.91 1031.14 1510.31 1065.71 1501.67 1104.13 1494.95 1145.43 1491.11 1183.85 1490.15 1199.21 1490.15 1276.05 1493.03 1314.47 1497.83 1349.04 1500.71 1367.29 1509.35 1407.63 1518.95 1442.21 1530.47 1476.78 1538.15 1496.95 1548.7 1522.88 1559.26 1545.93 1567.9 1564.18 1579.42 1585.31 1591.89 1607.4 1601.49 1622.77 1611.09 1637.17 1624.53 1656.38 1639.89 1676.55 1652.36 1691.92 1661 1702.49 1671.56 1714.01 1678.28 1721.69 1692.68 1737.06 1709.95 1754.35 1717.63 1761.07 1730.11 1772.6 1740.67 1781.24 1754.1 1792.77 1762.74 1799.49 1780.98 1812.94 1797.3 1824.46 1811.69 1834.07 1829.93 1845.59 1851.05 1858.08 1876 1871.52 1909.59 1887.85 1944.15 1902.26 1967.18 1910.9 2003.66 1922.43 2036.29 1931.07 2078.52 1939.71 2109.24 1944.52 2136.11 1947.4 2160.11 1949.32 2184.1 1950.28 2214.82 1950.28 2252.25 1948.36 2290.64 1944.52 2322.32 1939.71 2347.27 1934.91 2376.07 1928.19 2416.38 1916.66 2449.97 1905.14 2476.85 1894.57 2504.68 1882.09 2537.32 1865.76 2560.35 1852.31 2575.71 1843.67 2600.66 1827.34 2619.86 1813.9 2632.34 1804.29 2645.78 1793.73 2662.09 1780.28 2671.69 1771.64 2679.37 1764.91 2691.85 1753.39 2729.28 1715.93 2737.92 1705.37 2747.52 1694.8 2755.2 1685.2 2768.63 1667.91 2782.07 1649.66 2792.63 1634.29 2807.99 1610.28 2817.58 1593.96 2830.06 1570.9 2839.66 1552.66 2852.14 1526.72 2861.74 1502.71 2873.25 1472.94 2886.69 1429.72 2895.33 1394.18 2901.09 1366.33 2906.85 1327.91 2909.73 1299.1 2911.65 1272.21 2911.65 1207.86 2908.77 1167.52 2904.93 1132.94 2900.13 1105.09 2891.49 1064.75 2883.81 1035.94 2873.25 1002.32 2862.69 974.471 2851.18 946.618 2834.86 913.002 2817.58 880.348 2803.19 856.336 2793.59 841.93 2778.23 819.839 2764.79 801.591 2757.11 791.987 2748.48 781.422 2736.96 767.976 2719.68 748.767 2689.93 718.993 2679.37 710.349 2667.85 699.785 2654.41 689.219 2638.1 675.773 2625.62 666.169 2609.3 654.644 2590.11 641.198 2568.99 627.751 2548.83 616.226 2527.72 604.701 2512.36 597.017 2481.65 582.611 2452.85 571.085 2431.74 563.402 2390.46 550.916 2355.91 542.272 2321.36 535.549 2289.68 530.747 2261.85 527.865 2233.05 525.945Z" fill="#FEC213" fill-rule="evenodd"/><path d="M2236.52 1141.33 2256.64 1141.33 2275.81 1144.22 2277.72 1145.18 2276.76 1148.06 2264.31 1156.71 2252.81 1167.28 2245.15 1177.85 2241.31 1184.58 2237.48 1192.27 2233.65 1203.8 2230.78 1223.02 2230.78 1240.32 2234.61 1264.34 2239.4 1280.68 2248.98 1300.86 2258.56 1319.12 2270.06 1341.23 2281.56 1365.25 2289.22 1383.51 2299.76 1415.22 2304.55 1438.29 2308.38 1466.16 2307.42 1491.14 2302.63 1517.09 2295.93 1540.16 2290.18 1554.57 2278.68 1578.6 2269.1 1593.97 2262.39 1603.58 2251.85 1617.04 2242.27 1627.61 2235.57 1635.3 2220.24 1649.71 2207.78 1660.28 2195.32 1669.9 2172.33 1685.27 2149.34 1698.73 2134.96 1706.41 2118.68 1714.1 2097.6 1725.63 2082.27 1733.32 2060.23 1743.89 2038.19 1753.5 2003.7 1766 1975.92 1774.65 1946.21 1782.33 1942.38 1781.37 1951.96 1775.61 1974 1764.07 1996.04 1751.58 2015.2 1740.05 2036.28 1726.59 2054.48 1714.1 2067.9 1704.49 2083.23 1692.96 2098.56 1680.47 2111.01 1668.93 2118.68 1662.21 2131.13 1649.71 2137.84 1642.03 2150.29 1626.65 2157 1616.08 2165.62 1600.7 2172.33 1582.44 2177.12 1564.18 2179.04 1551.69 2180 1540.16 2180 1523.82 2178.08 1505.56 2174.25 1489.22 2168.5 1472.89 2160.83 1457.51 2154.13 1445.98 2143.59 1433.48 2134.01 1423.87 2120.59 1414.26 2108.14 1408.5 2102.39 1406.58 2105.26 1403.69 2118.68 1396.97 2131.13 1387.35 2138.8 1379.67 2146.46 1367.17 2150.29 1354.68 2151.25 1348.91 2151.25 1332.58 2149.34 1312.4 2144.54 1296.06 2135.92 1275.88 2133.05 1276.84 2126.34 1284.53 2123.47 1285.49 2123.47 1287.41 2110.05 1297.98 2093.76 1306.63 2081.31 1310.47 2072.69 1311.43 2064.06 1311.43 2068.85 1306.63 2074.6 1302.79 2086.1 1292.21 2093.76 1281.64 2102.39 1267.23 2111.01 1248.97 2115.8 1237.44 2115.8 1235.51 2106.22 1240.32 2090.89 1244.16 2070.77 1244.16 2051.61 1240.32 2046.82 1238.4 2046.82 1236.47 2067.9 1231.67 2083.23 1225.9 2098.56 1218.22 2111.01 1211.49 2132.09 1197.07 2147.42 1184.58 2157 1175.93 2174.25 1163.44 2189.58 1154.79 2207.78 1147.1 2227.9 1142.29Z" fill="#8C130C" fill-rule="evenodd"/><path d="M2480.03 706.169 2486.75 707.129 2514.62 718.639 2536.73 730.148 2552.11 739.74 2568.45 751.25 2579.02 759.882 2590.55 770.433 2598.24 777.147 2604.97 784.82 2615.54 797.289 2625.15 810.717 2632.84 823.186 2644.37 845.247 2652.06 864.43 2657.83 882.654 2662.63 904.714 2665.51 924.856 2666.48 936.366 2666.48 974.732 2664.55 996.793 2659.75 1027.49 2653.98 1052.42 2646.29 1078.32 2638.6 1098.46 2629.95 1118.61 2620.34 1136.83 2607.85 1157.93 2595.36 1176.15 2586.71 1187.66 2575.17 1201.09 2568.45 1208.77 2557.87 1220.28 2543.46 1234.66 2535.77 1241.38 2523.27 1251.93 2509.82 1262.48 2492.52 1274.95 2476.18 1285.5 2459.84 1295.09 2438.7 1306.6 2414.67 1318.11 2384.88 1329.62 2359.89 1337.29 2349.32 1340.17 2345.48 1339.21 2369.5 1324.82 2391.61 1309.48 2408.91 1296.05 2423.32 1283.58 2434.86 1273.03 2458.88 1249.05 2465.61 1241.38 2474.26 1231.79 2484.83 1218.36 2496.36 1203.01 2507.9 1186.71 2523.27 1162.73 2536.73 1138.75 2544.42 1124.36 2556.91 1097.5 2567.48 1071.61 2577.09 1044.75 2584.78 1017.89 2589.59 996.793 2593.43 970.896 2595.36 947.876 2595.36 922.938 2592.47 893.204 2588.63 872.103 2581.9 848.124 2573.25 825.105 2562.68 803.044 2552.11 784.82 2541.54 769.474 2530.96 756.046 2519.43 742.617 2500.21 723.434 2489.64 714.802 2480.03 707.129Z" fill="#8C130C" fill-rule="evenodd"/><path d="M1920.89 705.169 1923.78 706.128 1914.16 714.761 1904.55 722.435 1897.82 729.15 1892.06 733.946 1890.13 736.823 1888.21 736.823 1886.29 740.66 1879.56 747.375 1868.99 760.804 1859.38 773.274 1847.84 791.498 1838.23 808.764 1829.58 826.989 1820.93 850.97 1815.16 873.032 1810.35 901.808 1808.43 931.544 1809.39 957.443 1812.28 982.382 1817.08 1007.32 1824.77 1036.1 1838.23 1074.47 1851.69 1106.12 1866.1 1135.86 1878.6 1157.92 1889.17 1175.18 1900.71 1192.45 1910.32 1205.88 1919.93 1218.35 1928.58 1228.9 1940.12 1242.33 1950.69 1253.84 1959.34 1262.47 1959.34 1264.39 1962.22 1265.35 1977.6 1280.7 1985.29 1287.41 1997.79 1297.96 2014.13 1310.43 2032.39 1322.9 2044.89 1330.58 2056.42 1337.29 2060.26 1339.21 2056.42 1340.17 2032.39 1333.45 2006.44 1324.82 1988.18 1317.15 1966.07 1306.6 1947.81 1297 1926.66 1284.53 1915.12 1276.86 1898.78 1265.35 1886.29 1255.76 1872.83 1244.25 1853.61 1226.98 1837.27 1210.68 1830.54 1203 1817.08 1186.69 1803.63 1168.47 1790.17 1147.37 1776.71 1122.43 1766.14 1099.41 1755.57 1070.63 1747.88 1042.81 1742.11 1013.08 1739.23 991.015 1738.26 979.505 1738.26 931.544 1741.15 907.563 1745.95 884.542 1752.68 862.48 1762.29 839.459 1773.83 818.357 1786.32 800.131 1796.9 786.703 1803.63 779.988 1810.35 772.314 1823.81 759.844 1837.27 749.293 1850.72 739.701 1866.1 730.109 1887.25 718.598 1905.51 710.924Z" fill="#8C130C" fill-rule="evenodd"/><path d="M1604.79 971.269 1607.68 972.227 1611.52 995.225 1622.09 1037.39 1630.74 1065.18 1640.35 1092.01 1652.84 1120.75 1660.53 1137.04 1672.06 1158.13 1683.59 1177.29 1699.92 1201.25 1712.42 1217.54 1721.06 1228.08 1729.71 1237.66 1736.44 1245.33 1740.28 1250.12 1745.09 1254.91 1752.77 1261.62 1766.23 1275.03 1776.8 1283.66 1785.44 1291.32 1797.94 1300.9 1811.39 1310.49 1828.68 1321.99 1852.71 1336.36 1874.81 1347.86 1890.18 1355.52 1921.89 1368.94 1954.56 1380.44 1984.35 1389.06 2012.22 1395.77 2046.81 1401.52 2063.15 1403.44 2063.15 1405.35 2052.58 1406.31 2025.67 1407.27 1993 1407.27 1965.13 1406.31 1930.54 1403.44 1899.79 1399.6 1863.28 1392.9 1836.37 1386.19 1811.39 1378.52 1786.41 1368.94 1762.38 1357.44 1744.13 1347.86 1718.18 1330.61 1702.81 1318.15 1691.28 1307.61 1683.59 1300.9 1671.1 1287.49 1660.53 1274.07 1649 1257.78 1638.43 1240.53 1627.86 1220.41 1617.29 1194.54 1609.6 1170.58 1602.87 1141.84 1599.03 1117.88 1596.15 1087.22 1596.15 1037.39 1598.07 1013.43 1601.91 985.643Z" fill="#8C130C" fill-rule="evenodd"/><path d="M2794.02 971.269 2795.94 971.269 2797.87 979.893 2802.67 1011.52 2804.59 1035.47 2804.59 1089.13 2801.71 1119.8 2797.87 1142.79 2791.14 1171.54 2780.57 1203.16 2769.04 1229.04 2759.43 1246.28 2749.82 1261.62 2742.13 1272.16 2729.64 1287.49 2719.07 1298.99 2704.66 1313.36 2694.09 1321.99 2677.75 1334.44 2658.54 1346.9 2637.4 1358.4 2617.22 1367.98 2590.31 1378.52 2562.45 1387.15 2539.38 1392.9 2503.83 1399.6 2475 1403.44 2442.33 1406.31 2425.04 1407.27 2354.89 1407.27 2340.48 1406.31 2337.59 1404.39 2379.87 1397.69 2406.78 1391.94 2441.37 1382.35 2472.12 1371.81 2498.06 1361.27 2523.05 1349.77 2547.07 1337.32 2571.09 1322.94 2592.23 1308.57 2610.49 1295.15 2621.06 1286.53 2633.55 1275.99 2647.97 1262.57 2667.18 1243.41 2673.91 1235.74 2684.48 1223.29 2696.97 1207 2709.46 1189.75 2722.92 1168.67 2734.45 1148.54 2746.94 1124.59 2759.43 1095.84 2770 1067.09 2779.61 1035.47 2787.3 1004.81Z" fill="#8C130C" fill-rule="evenodd"/><path d="M2724.61 1389.43 2725.57 1392.31 2715.98 1407.67 2706.38 1420.15 2695.83 1432.63 2682.41 1447.03 2674.73 1453.75 2662.27 1464.31 2645 1475.83 2628.7 1485.43 2609.52 1494.07 2583.62 1502.71 2565.4 1506.55 2540.46 1509.43 2511.69 1509.43 2486.76 1506.55 2462.78 1501.75 2437.84 1495.03 2413.86 1486.39 2389.89 1475.83 2369.75 1466.23 2352.48 1456.63 2350.57 1453.75 2360.16 1454.71 2387.01 1458.55 2418.66 1461.43 2444.56 1462.39 2470.45 1462.39 2508.81 1460.47 2547.18 1455.67 2574.03 1450.87 2608.56 1442.23 2643.08 1430.71 2662.27 1423.03 2687.2 1411.51 2709.26 1399.03Z" fill="#8D130C" fill-rule="evenodd"/><path d="M1675.17 1389.43 1682.84 1393.27 1698.19 1402.87 1720.25 1414.39 1746.14 1425.91 1772.04 1435.51 1793.14 1442.23 1827.67 1450.87 1863.15 1456.63 1887.13 1459.51 1912.06 1461.43 1972.49 1461.43 1999.34 1459.51 2038.66 1454.71 2050.17 1452.79 2045.38 1457.59 2019.48 1471.03 1992.63 1483.51 1958.1 1495.99 1932.21 1502.71 1903.43 1507.51 1875.62 1509.43 1865.07 1509.43 1843.97 1507.51 1819.03 1502.71 1794.1 1495.03 1771.08 1484.47 1757.65 1476.79 1746.14 1469.11 1733.68 1459.51 1720.25 1447.99 1705.86 1433.59 1697.23 1423.03 1684.76 1406.71 1678.05 1396.15 1675.17 1391.35Z" fill="#8C130C" fill-rule="evenodd"/><path d="M2149.5 833.218 2156.15 833.218 2165.65 836.1 2174.2 842.824 2180.85 852.43 2185.6 862.997 2188.45 872.603 2190.35 891.816 2188.45 913.911 2185.6 925.438 2178 940.808 2172.3 947.533 2161.85 954.257 2158.05 955.218 2146.65 955.218 2137.15 952.336 2127.65 943.69 2121.95 934.084 2117.2 920.635 2114.35 902.383 2114.35 887.013 2117.2 869.722 2122.9 854.352 2128.6 845.706 2136.2 838.021 2143.8 834.178Z" fill="#FDFDFC" fill-rule="evenodd"/><path d="M2063.4 1510.47 2065.32 1511.43 2054.75 1524.85 2043.21 1538.26 2023.99 1557.43 2013.41 1566.05 2000.92 1575.64 1981.69 1587.14 1961.51 1595.76 1943.25 1600.55 1927.87 1602.47 1914.41 1602.47 1899.99 1600.55 1879.81 1594.8 1864.43 1587.14 1853.85 1580.43 1842.32 1571.8 1842.32 1568.93 1869.23 1567.01 1900.95 1563.18 1927.87 1558.39 1960.55 1550.72 1989.38 1542.1 2018.22 1531.55 2044.17 1520.05 2059.55 1512.39Z" fill="#8D130C" fill-rule="evenodd"/><path d="M2334.42 1510.47 2341.15 1513.35 2367.1 1525.8 2395.94 1537.3 2424.77 1546.89 2461.3 1556.47 2496.86 1563.18 2518.01 1566.05 2557.42 1569.89 2556.46 1573.72 2540.12 1585.22 2524.74 1592.89 2509.36 1598.64 2497.83 1601.51 2490.14 1602.47 2467.07 1602.47 2450.73 1599.6 2434.39 1594.8 2412.28 1584.26 2394.98 1572.76 2379.6 1560.3 2368.06 1549.76 2354.61 1536.35 2345.96 1525.8 2337.3 1516.22 2334.42 1512.39Z" fill="#8D130C" fill-rule="evenodd"/><path d="M2863.36 1716.55 2875.88 1716.55 2885.51 1719.43 2894.18 1725.2 2901.88 1733.86 2904.77 1740.59 2905.73 1745.4 2905.73 1761.74 2924.99 1755.01 2929.81 1752.13 2934.62 1753.09 2933.66 1757.9 2926.92 1765.59 2914.4 1773.28 2895.14 1781.94 2877.81 1789.63 2868.18 1791.55 2856.62 1790.59 2847.95 1786.74 2840.25 1780.97 2834.47 1773.28 2830.62 1763.67 2830.62 1748.28 2835.44 1736.74 2844.1 1726.17 2853.73 1719.43Z" fill="#FDFEFD" fill-rule="evenodd"/><path d="M2964.33 1548.48 2975.87 1548.48 2985.48 1551.33 2995.09 1557.97 3000.85 1564.62 3005.66 1576.01 3005.66 1591.2 2999.89 1605.44 2991.24 1615.89 2977.79 1622.53 2973.94 1623.48 2963.37 1623.48 2950.88 1619.68 2943.19 1614.94 2936.46 1608.29 2932.62 1599.75 2931.66 1595 2931.66 1582.66 2935.5 1570.32 2942.23 1560.82 2950.88 1553.23 2959.53 1549.43Z" fill="#FDFEFD" fill-rule="evenodd"/><path d="M1500.18 1707.55 1511.57 1709.47 1522.02 1715.24 1528.66 1721.01 1535.31 1731.59 1538.16 1738.32 1539.11 1743.12 1539.11 1752.74 1535.31 1764.28 1528.66 1772.93 1519.17 1779.66 1510.62 1782.55 1494.49 1782.55 1484.99 1778.7 1477.4 1772.93 1469.8 1764.28 1465.05 1753.7 1464.11 1750.82 1464.11 1736.39 1467.9 1726.78 1474.55 1718.12 1484.04 1711.39 1492.59 1708.51Z" fill="#FDFDFC" fill-rule="evenodd"/><path d="M2078.36 1555.49 2079.32 1555.49 2079.32 1565.08 2075.49 1589.05 2070.69 1608.23 2063.01 1628.37 2053.42 1643.72 2044.79 1653.31 2037.11 1660.02 2027.52 1665.78 2015.05 1670.57 2002.58 1672.49 1990.1 1672.49 1977.63 1670.57 1961.32 1665.78 1961.32 1662.9 1969.96 1657.14 1984.35 1648.51 2005.45 1634.13 2016.01 1626.46 2028.48 1615.91 2036.15 1609.19 2052.46 1592.89 2061.1 1582.34 2070.69 1568.91Z" fill="#8D130C" fill-rule="evenodd"/><path d="M2320.41 1555.49 2323.29 1558.37 2330.97 1571.79 2339.61 1583.3 2350.16 1595.77 2360.72 1607.28 2368.4 1613.99 2381.83 1625.5 2399.11 1637.96 2413.5 1647.55 2427.9 1656.19 2439.41 1662.9 2439.41 1665.78 2424.06 1670.57 2412.54 1672.49 2394.31 1672.49 2380.87 1669.61 2372.24 1665.78 2362.64 1660.02 2353.04 1651.39 2344.41 1640.84 2336.73 1627.42 2329.05 1608.23 2324.25 1589.05 2320.41 1564.12Z" fill="#8C130C" fill-rule="evenodd"/><path d="M1370.19 1114.32 1373.06 1115.28 1370.19 1141.05 1365.41 1143.91 1334.8 1155.37 1331.93 1157.28 1330.01 1166.82 1345.32 1167.78 1358.71 1169.69 1361.58 1160.14 1363.49 1158.23 1368.28 1158.23 1367.32 1168.73 1365.41 1184 1364.45 1198.32 1360.62 1198.32 1358.71 1196.41 1357.75 1187.82 1300.36 1181.14 1292.71 1181.14 1289.84 1189.73 1285.06 1188.78 1287.93 1146.78 1291.75 1134.37 1296.54 1127.68 1304.19 1122.91 1307.06 1121.96 1314.71 1121.96 1322.36 1125.78 1327.14 1131.5 1330.01 1139.14 1348.19 1130.55 1363.49 1122.91Z" fill="#FDFDFC" fill-rule="evenodd"/><path d="M2846.62 638.145 2851.37 639.112 2859.93 648.775 2866.59 656.507 2876.1 666.171 2882.75 676.801 2885.61 684.532 2885.61 692.263 2881.8 701.927 2874.2 707.725 2863.73 708.692 2857.08 705.792 2854.22 704.826 2845.67 732.851 2843.76 739.616 2844.71 753.145 2840.91 752.179 2833.3 741.549 2825.7 732.851 2826.65 728.019 2839.01 699.028 2839.96 691.297 2836.16 686.465 2831.4 688.398 2824.74 695.162 2814.28 703.86 2817.14 712.557 2818.09 716.423 2817.14 719.322 2812.38 717.389 2800.97 701.927 2789.56 690.33 2788.61 687.431 2789.56 685.498 2794.31 686.465 2799.07 690.33 2802.87 689.364 2813.33 680.666 2825.7 670.036 2846.62 652.641 2849.47 651.675 2849.47 646.843 2845.67 641.044Z" fill="#FDFDFC" fill-rule="evenodd"/><path d="M2048.5 833.217 2058.02 833.217 2069.45 836.096 2077.07 840.895 2082.79 847.613 2086.6 856.25 2087.55 861.048 2087.55 868.725 2083.74 881.201 2077.07 890.798 2068.5 900.395 2040.88 928.226 2035.17 933.024 2075.17 933.024 2079.93 930.145 2083.74 920.548 2090.41 920.548 2092.31 924.387 2088.5 950.298 2086.6 952.218 2013.26 952.218 2012.31 947.419 2019.93 936.863 2032.31 922.467 2042.79 910.952 2053.26 897.516 2058.98 888.879 2062.79 878.322 2063.74 873.524 2063.74 864.887 2060.88 855.29 2057.07 850.491 2049.45 847.613 2040.88 847.613 2033.26 851.451 2029.45 856.25 2026.6 862.008 2023.74 870.645 2018.98 870.645 2017.07 867.766 2017.07 860.088 2019.93 851.451 2025.64 843.774 2032.31 838.016 2042.79 834.177Z" fill="#FDFDFC" fill-rule="evenodd"/><path d="M2247.6 833.217 2258.07 833.217 2269.49 836.096 2279.01 842.814 2284.72 851.451 2287.58 864.887 2285.67 876.403 2279.96 886.959 2271.4 896.556 2258.07 910.952 2249.5 919.588 2241.89 926.306 2235.23 933.024 2274.25 933.024 2279.01 931.105 2283.77 920.548 2290.43 920.548 2291.38 921.508 2290.43 934.943 2288.53 949.339 2286.62 952.218 2213.34 952.218 2212.38 947.419 2216.19 941.661 2224.76 931.105 2233.32 921.508 2245.7 907.113 2258.07 889.839 2261.88 880.242 2263.78 868.725 2261.88 858.169 2258.07 852.411 2252.36 848.572 2249.5 847.613 2240.94 847.613 2234.28 850.491 2230.47 854.33 2226.66 862.008 2223.81 869.685 2219.05 870.645 2217.14 868.725 2217.14 859.129 2220.95 849.532 2227.61 841.855 2236.18 836.096Z" fill="#FDFEFD" fill-rule="evenodd"/><path d="M2222.05 346.034 2239.45 346.992 2250.08 348.907 2252.98 353.694 2266.51 392.949 2269.41 401.566 2269.41 403.481 2272.31 400.609 2286.81 375.715 2298.41 354.651 2302.28 353.694 2327.41 355.609 2328.38 358.481 2326.45 361.354 2316.78 363.268 2315.81 364.226 2312.91 408.268 2311.95 427.417 2321.61 430.29 2322.58 435.077 2318.71 436.034 2303.25 433.162 2281.98 431.247 2281.98 427.417 2284.88 425.502 2293.58 425.502 2295.51 395.822 2296.48 372.843 2284.88 392.949 2272.31 414.97 2264.58 430.29 2259.75 429.332 2246.21 390.077 2238.48 368.056 2232.68 411.141 2233.65 417.843 2237.51 420.715 2243.31 423.588 2243.31 427.417 2216.25 425.502 2212.38 424.545 2213.35 419.758 2222.05 417.843 2224.95 411.141 2231.71 360.396 2231.71 354.651 2222.05 350.822 2221.08 346.992Z" fill="#FDFDFC" fill-rule="evenodd"/><path d="M2348.09 833.217 2358.69 833.217 2367.37 835.137 2376.04 839.935 2382.79 846.653 2386.64 854.33 2387.61 858.169 2387.61 871.604 2383.75 882.161 2376.04 892.718 2334.6 933.984 2376.04 933.024 2380.86 929.185 2383.75 921.508 2385.68 920.548 2392.43 920.548 2391.46 933.984 2388.57 951.258 2387.61 952.218 2313.39 952.218 2312.43 951.258 2313.39 944.54 2324.96 931.105 2333.63 920.548 2341.34 912.871 2351.94 899.435 2358.69 888.879 2363.51 876.403 2363.51 862.008 2359.66 853.371 2354.84 849.532 2350.02 847.613 2340.38 847.613 2334.6 850.491 2329.78 855.29 2323.99 869.685 2319.17 870.645 2317.25 868.725 2317.25 858.169 2321.1 849.532 2326.88 841.855 2336.52 836.096Z" fill="#FDFEFD" fill-rule="evenodd"/><path d="M2151.48 1725.55 2154.35 1726.51 2136.15 1744.78 2127.53 1755.35 2118.91 1766.88 2107.41 1785.14 2095.92 1807.25 2087.3 1829.35 2082.51 1843.77 2076.76 1865.88 2072.93 1887.02 2071.01 1898.55 2068.14 1895.67 2064.31 1871.64 2063.35 1863.95 2063.35 1831.28 2066.22 1813.01 2071.01 1796.68 2078.68 1781.3 2084.42 1771.69 2093.04 1761.11 2097.83 1756.31 2108.37 1746.7 2121.78 1738.05 2137.11 1730.36Z" fill="#8C130C" fill-rule="evenodd"/><path d="M2909.07 1637.52 2916.7 1637.52 2924.33 1641.38 2927.2 1646.2 2927.2 1655.83 2936.74 1650.05 2947.23 1650.05 2953.91 1653.91 2958.68 1659.69 2959.63 1662.58 2959.63 1675.11 2955.82 1684.75 2946.28 1700.17 2937.69 1716.56 2933.87 1717.52 2932.92 1712.7 2933.87 1705.96 2910.02 1692.46 2887.13 1679.93 2883.31 1681.86 2879.49 1685.71 2876.63 1684.75 2877.59 1680.9 2887.13 1663.55 2895.71 1648.12 2903.34 1640.41Z" fill="#FDFDFC" fill-rule="evenodd"/><path d="M2510.32 407.057 2516.09 407.057 2535.32 415.669 2539.16 420.454 2549.73 448.204 2562.23 481.695 2566.08 491.264 2568 489.35 2575.69 470.212 2583.38 450.118 2583.38 445.333 2579.53 443.419 2575.69 438.635 2576.65 436.721 2582.42 437.678 2604.53 447.247 2605.49 451.074 2600.68 452.031 2592.03 452.031 2579.53 480.738 2570.88 500.833 2563.19 518.057 2559.35 517.1 2554.54 513.273 2548.77 497.005 2533.39 455.859 2524.74 434.807 2521.86 438.635 2507.44 472.126 2504.56 481.695 2504.56 483.609 2510.32 485.523 2513.21 487.436 2514.17 491.264 2513.21 493.178 2507.44 492.221 2482.45 479.781 2481.49 475.954 2485.33 474.997 2493.98 477.867 2495.91 477.867 2497.83 472.126 2511.28 444.376 2518.97 426.195 2519.94 422.368 2517.05 415.669 2510.32 409.928Z" fill="#FDFDFC" fill-rule="evenodd"/><path d="M1358.74 883.237 1362.6 885.158 1362.6 896.685 1371.28 899.567 1413.73 913.977 1431.09 920.701 1432.05 924.544 1427.23 929.347 1412.76 936.071 1358.74 961.048 1352.96 963.93 1350.06 963.93 1352.96 966.811 1388.65 979.3 1396.36 981.221 1401.19 980.261 1405.05 972.575 1408.9 971.615 1410.83 975.457 1406.01 986.024 1399.26 1004.28 1396.36 1005.24 1394.43 1004.28 1396.36 990.827 1387.68 987.945 1347.17 972.575 1337.52 970.654 1331.74 974.497 1326.91 981.221 1323.05 979.3 1325.95 968.733 1331.74 954.323 1339.45 949.52 1364.53 937.993 1399.26 922.622 1403.12 920.701 1406.01 920.701 1406.01 918.78 1396.36 915.898 1365.5 906.292 1358.74 905.331 1353.92 913.016 1351.03 913.977 1349.1 912.056 1351.03 903.41 1357.78 884.197Z" fill="#FDFDFC" fill-rule="evenodd"/><path d="M1337.71 1296.39 1348.2 1297.34 1356.78 1301.16 1362.51 1304.98 1369.18 1313.57 1372.05 1322.16 1372.05 1334.57 1368.23 1344.12 1360.6 1352.71 1352.01 1357.48 1343.43 1359.39 1332.94 1358.44 1321.49 1352.71 1314.81 1345.07 1311 1336.48 1310.05 1330.75 1310.05 1323.12 1313.86 1312.62 1320.54 1304.98 1328.17 1299.25Z" fill="#FEC213" fill-rule="evenodd"/><path d="M1676.91 500.093 1679.79 500.093 1680.75 502.975 1675.94 510.663 1676.91 515.468 1686.51 527.96 1697.08 540.452 1707.65 553.905 1719.17 568.319 1718.21 573.124 1712.45 575.046 1637.52 565.437 1627.91 565.437 1637.52 577.929 1648.09 591.382 1657.69 601.952 1657.69 603.874 1663.46 603.874 1669.22 600.03 1674.02 600.991 1673.06 605.796 1659.61 614.444 1649.05 623.093 1645.2 622.132 1646.17 618.288 1651.93 613.483 1650.97 608.678 1641.36 595.225 1628.87 578.89 1618.31 565.437 1614.46 562.554 1607.74 562.554 1599.09 565.437 1597.17 564.475 1598.13 560.632 1611.58 550.061 1618.31 545.257 1632.72 546.218 1690.35 553.905 1698.04 553.905 1692.28 546.218 1669.22 519.311 1663.46 519.311 1660.57 521.233 1655.77 521.233 1654.81 518.351 1659.61 513.546 1670.18 504.897Z" fill="#FDFDFC" fill-rule="evenodd"/><path d="M3036.77 1296.39 3048.4 1298.3 3057.12 1302.12 3062.94 1306.89 3068.75 1316.43 3070.69 1322.16 3070.69 1334.57 3064.88 1346.03 3060.03 1351.75 3050.34 1357.48 3038.71 1359.39 3028.04 1357.48 3020.29 1353.66 3012.54 1345.07 3008.66 1336.48 3007.69 1332.66 3007.69 1322.16 3011.57 1312.62 3017.38 1304.98 3028.04 1298.3Z" fill="#FEC213" fill-rule="evenodd"/><path d="M1316.27 1011.28 1323.95 1012.24 1333.54 1014.16 1335.46 1016.08 1334.5 1019.91 1333.54 1020.87 1323.95 1022.79 1320.11 1024.71 1314.35 1043.88 1311.47 1057.3 1320.11 1058.26 1338.34 1062.1 1340.26 1063.06 1341.22 1055.39 1343.14 1044.84 1342.18 1038.13 1333.54 1033.34 1334.5 1028.54 1345.06 1030.46 1365.21 1035.25 1366.17 1039.09 1365.21 1040.05 1350.82 1041.01 1346.02 1064.97 1354.65 1065.93 1375.76 1070.73 1379.6 1055.39 1381.52 1044.84 1381.52 1037.17 1377.68 1030.46 1370.01 1022.79 1370.97 1018.95 1377.68 1019.91 1393.04 1027.58 1392.08 1035.25 1379.6 1085.11 1376.72 1101.41 1373.85 1104.28 1370.97 1103.33 1370.97 1088.94 1329.7 1079.36 1307.63 1075.52 1302.84 1087.03 1298.04 1086.07 1299.96 1076.48 1304.75 1054.43 1312.43 1018.95Z" fill="#FDFDFC" fill-rule="evenodd"/><path d="M1407.67 791.202 1423.09 798.909 1425.02 802.762 1422.13 804.689 1407.67 805.652 1403.81 810.469 1394.17 826.845 1391.28 834.551 1417.31 848.038 1419.23 842.258 1425.02 830.698 1425.02 823.955 1418.27 818.175 1419.23 814.322 1425.02 815.285 1441.41 823.955 1447.19 826.845 1448.15 831.661 1433.69 830.698 1427.91 839.368 1424.05 848.038 1424.05 851.891 1446.23 863.451 1450.08 862.487 1455.87 853.818 1462.61 840.331 1463.58 833.588 1460.68 824.918 1456.83 818.175 1457.79 813.358 1463.58 815.285 1473.22 823.955 1477.07 826.845 1476.11 831.661 1465.5 850.928 1453.94 871.157 1441.41 896.203 1437.55 896.203 1436.59 893.313 1439.48 884.643 1438.51 880.79 1417.31 869.23 1383.57 851.891 1380.68 852.854 1374.89 860.561 1370.07 859.597 1372 853.818 1378.75 843.221 1396.1 808.542 1405.74 793.129Z" fill="#FDFEFD" fill-rule="evenodd"/><path d="M3030.71 944.259 3034.55 945.22 3037.43 953.867 3043.2 973.083 3050.88 996.142 3055.68 1013.44 3055.68 1018.24 3046.08 1022.08 3037.43 1024 3035.51 1021.12 3042.24 1013.44 3045.12 1009.59 3044.16 999.024 3038.39 977.887 3030.71 978.848 3011.5 984.612 3009.58 984.612 3017.27 1006.71 3029.75 1007.67 3031.67 1011.51 3026.87 1014.4 3007.66 1020.16 2999.98 1021.12 2999.02 1019.2 3003.82 1014.4 3009.58 1010.55 3005.74 994.22 3003.82 987.495 2983.65 993.259 2975.97 996.142 2976.93 1005.75 2982.69 1023.04 2985.57 1026.89 2985.57 1028.81 2990.38 1030.73 3002.86 1034.57 3004.78 1036.49 3003.82 1040.34 2986.53 1042.26 2980.77 1042.26 2977.89 1034.57 2966.36 993.259 2958.68 970.2 2959.64 965.397 2964.44 968.279 2968.29 976.926 2976.93 975.965 3025.91 960.593 3030.71 958.671 3029.75 945.22Z" fill="#FDFDFC" fill-rule="evenodd"/><path d="M2766.21 560.114 2770.99 561.071 2774.82 564.897 2774.82 566.81 2776.73 566.81 2789.16 579.245 2799.68 587.854 2812.11 599.332 2818.8 605.071 2823.58 610.81 2822.62 614.636 2812.11 626.115 2808.28 626.115 2808.28 619.419 2810.19 609.854 2807.33 605.071 2797.76 594.549 2788.2 586.897 2785.33 586.897 2778.64 594.549 2770.04 604.114 2769.08 607.94 2780.55 618.462 2785.33 621.332 2791.07 619.419 2795.85 616.549 2798.72 617.506 2797.76 622.288 2789.16 630.897 2780.55 641.419 2777.69 642.375 2775.77 641.419 2776.73 636.636 2779.6 630.897 2778.64 626.115 2773.86 621.332 2764.3 612.723 2760.47 614.636 2747.09 628.984 2745.18 631.854 2746.13 636.636 2752.83 644.289 2763.34 652.897 2769.08 655.767 2781.51 654.81 2783.42 653.854 2789.16 653.854 2790.11 656.723 2787.25 659.593 2776.73 667.245 2773.86 670.115 2769.08 669.158 2759.52 659.593 2755.69 656.723 2755.69 654.81 2751.87 652.897 2729.88 630.897 2720.32 623.245 2714.58 618.462 2716.49 614.636 2720.32 615.593 2727.01 620.375 2730.83 619.419 2735.61 614.636 2750.91 598.375 2759.52 588.81 2770.99 576.375 2771.95 571.593 2765.26 562.984Z" fill="#FDFEFD" fill-rule="evenodd"/><path d="M2149.54 842.221 2157.94 843.185 2162.61 848.001 2165.41 857.634 2166.34 866.304 2166.34 916.396 2163.54 936.626 2159.81 944.332 2155.14 947.222 2148.61 947.222 2143.94 944.332 2140.21 938.552 2138.34 925.066 2138.34 863.414 2140.21 851.854 2143.94 846.075Z" fill="#083254" fill-rule="evenodd"/><path d="M1940.36 377.047 1945.13 377.047 1954.68 387.692 1964.22 400.272 1975.68 414.789 1992.86 438.014 1994.77 438.982 2003.36 439.95 2005.27 440.918 2004.32 444.789 1997.63 446.724 1979.5 451.563 1970.91 454.466 1966.13 454.466 1966.13 450.595 1972.82 446.724 1974.72 446.724 1971.86 439.95 1962.32 428.337 1947.04 432.208 1940.36 433.176 1940.36 454.466 1950.86 455.434 1950.86 459.305 1948 461.24 1930.82 465.111 1927 467.047 1921.27 467.047 1922.22 463.176 1927.95 459.305 1929.86 459.305 1932.72 434.144 1937.5 381.886Z" fill="#FDFDFC" fill-rule="evenodd"/><path d="M1552.91 603.13 1568.22 608.873 1622.77 631.84 1629.47 631.84 1632.34 629.926 1637.13 629.926 1637.13 633.754 1621.81 648.109 1615.11 654.808 1611.29 659.593 1608.42 660.55 1607.46 655.765 1611.29 649.066 1610.33 646.195 1594.06 639.496 1590.23 641.41 1578.75 651.937 1577.79 652.894 1578.75 659.593 1584.49 671.077 1589.28 672.034 1593.1 669.163 1597.89 669.163 1596.93 673.948 1585.45 683.518 1578.75 692.131 1574.92 692.131 1573.96 688.303 1577.79 683.518 1576.84 674.905 1555.78 627.055 1548.13 609.829 1550.04 605.045Z" fill="#FDFDFC" fill-rule="evenodd"/><path d="M2401.19 372.044 2406.93 373.003 2425.12 378.755 2439.49 382.59 2441.4 385.467 2439.49 388.343 2428 387.384 2422.25 404.642 2414.59 433.405 2413.64 442.034 2415.55 448.745 2420.34 453.539 2426.08 456.415 2429.91 457.374 2442.36 457.374 2448.1 454.498 2453.85 446.828 2460.55 423.817 2465.34 401.766 2464.38 396.972 2456.72 393.137 2455.76 390.261 2456.72 389.302 2462.47 389.302 2485.44 396.972 2484.49 401.766 2473.95 400.807 2470.12 417.106 2463.42 442.992 2458.64 453.539 2451.93 461.209 2442.36 465.044 2428 465.044 2416.51 462.168 2405.98 456.415 2401.19 451.621 2396.4 443.951 2395.44 437.24 2398.32 421.9 2408.85 386.426 2408.85 380.673 2402.15 377.797 2400.23 375.879Z" fill="#FDFEFD" fill-rule="evenodd"/><path d="M1412.51 1503.47 1415.39 1504.43 1423.07 1522.69 1422.11 1529.41 1413.47 1548.63 1396.19 1586.1 1395.23 1588.98 1432.67 1572.65 1433.63 1569.76 1433.63 1561.12 1437.47 1562.08 1442.27 1571.69 1447.07 1583.22 1446.11 1586.1 1441.31 1584.18 1438.43 1580.33 1429.79 1581.29 1401.95 1592.82 1380.83 1601.47 1376.03 1600.51 1375.07 1599.55 1376.03 1591.86 1384.67 1573.61 1397.15 1546.71 1404.83 1528.45 1385.63 1535.18 1364.51 1543.82 1363.55 1548.63 1364.51 1556.31 1361.63 1557.27 1358.75 1554.39 1353.95 1539.98 1351.07 1533.25 1352.03 1528.45 1355.87 1530.37 1357.79 1534.22 1357.79 1537.1 1369.31 1534.22 1398.11 1523.65 1409.63 1517.88 1411.55 1512.12 1411.55 1504.43Z" fill="#FDFDFC" fill-rule="evenodd"/><path d="M1451.26 1600.51 1455.07 1602.43 1464.6 1618.78 1463.64 1626.48 1450.3 1670.73 1445.54 1686.12 1450.3 1684.19 1465.55 1675.54 1480.8 1665.92 1479.84 1656.3 1480.8 1654.37 1484.61 1656.3 1494.13 1672.65 1495.09 1677.46 1489.37 1676.5 1485.56 1672.65 1479.84 1674.57 1453.16 1689.96 1432.2 1701.51 1427.44 1701.51 1426.48 1700.55 1426.48 1693.81 1434.11 1669.76 1445.54 1631.29 1447.45 1625.52 1421.72 1638.98 1412.19 1644.75 1408.38 1647.64 1410.29 1654.37 1410.29 1659.18 1406.47 1659.18 1397.9 1642.83 1394.09 1637.06 1394.09 1633.21 1398.85 1633.21 1401.71 1638.98 1404.57 1639.94 1426.48 1629.36 1447.45 1617.82 1451.26 1613.01 1450.3 1601.47Z" fill="#FDFDFC" fill-rule="evenodd"/><path d="M2995.99 848.222 2999.84 850.134 2998.88 854.914 2997.92 858.739 3006.58 877.859 3021.01 910.365 3021.97 913.233 3028.71 915.145 3029.67 918.013 3016.2 924.706 3009.46 927.574 3005.61 927.574 3004.65 921.838 3011.39 915.145 3012.35 912.277 3006.58 897.937 3000.8 898.893 2976.75 909.409 2948.84 921.838 2949.8 935.222 2944.99 935.222 2939.22 920.882 2931.52 903.673 2927.67 896.024 2927.67 894.113 2932.48 894.113 2940.18 902.717 2947.88 901.761 2991.18 882.64 2996.95 879.772 2995.99 874.035 2989.25 860.651 2975.78 855.87 2974.82 853.003 2976.75 851.09Z" fill="#FDFDFC" fill-rule="evenodd"/><path d="M3047.21 1049.3 3064.47 1051.23 3069.26 1053.16 3068.31 1057.98 3066.39 1059.91 3067.35 1070.52 3075.02 1112.97 3076.93 1120.69 3081.73 1123.58 3082.69 1127.44 3075.98 1129.37 3064.47 1131.3 3057.76 1131.3 3056.8 1126.48 3066.39 1119.72 3066.39 1111.04 3064.47 1101.39 3009.82 1111.04 3003.11 1112.97 3002.15 1124.55 2997.36 1125.51 2995.44 1116.83 2991.6 1092.71 2989.69 1084.99 2990.65 1080.17 2994.48 1081.14 3001.19 1092.71 3022.28 1089.82 3057.76 1083.07 3061.59 1083.07 3057.76 1063.77 3052.97 1058.95 3045.3 1054.12 3046.25 1050.27Z" fill="#FDFDFC" fill-rule="evenodd"/><path d="M1884.07 392.052 1887.89 392.052 1894.57 408.398 1895.52 416.09 1889.8 416.09 1885.02 410.321 1882.16 408.398 1872.61 410.321 1865.93 413.206 1866.89 418.975 1877.39 445.898 1887.89 471.859 1898.39 470.898 1901.25 471.859 1900.29 476.667 1876.43 485.321 1862.11 492.052 1859.25 491.09 1860.2 486.283 1868.79 479.552 1867.84 472.821 1862.11 457.436 1848.75 423.782 1848.75 420.898 1837.29 424.744 1828.7 429.552 1824.89 438.206 1822.98 443.013 1819.16 442.052 1818.2 441.09 1817.25 431.475 1817.25 418.975 1828.7 419.936 1880.25 398.782 1882.16 397.821Z" fill="#FDFDFC" fill-rule="evenodd"/><path d="M2681.91 494.091 2685.73 495.06 2701.96 507.658 2715.32 516.38 2716.27 521.225 2712.46 522.194 2701.96 518.318 2698.14 533.823 2690.5 567.741 2698.14 563.865 2709.59 556.112 2730.59 541.576 2731.55 538.669 2724.87 530.916 2725.82 527.039 2730.59 528.009 2739.18 535.761 2750.64 543.514 2752.55 546.421 2750.64 548.359 2738.23 547.39 2725.82 554.174 2703.87 568.71 2689.55 577.432 2678.09 585.184 2674.27 588.091 2670.46 586.153 2668.55 584.215 2670.46 574.524 2682.87 520.256 2684.77 512.504 2684.77 502.813 2680.96 498.937Z" fill="#FDFDFC" fill-rule="evenodd"/><path d="M2908.16 729.178 2914.85 729.178 2923.44 732.06 2929.17 735.902 2929.17 737.823 2931.08 737.823 2937.77 748.389 2940.63 756.073 2940.63 761.836 2931.08 770.481 2926.31 772.402 2924.4 770.481 2924.4 764.718 2928.22 758.955 2929.17 749.349 2926.31 743.587 2921.53 739.744 2912.94 739.744 2909.12 742.626 2908.16 745.507 2908.16 755.113 2911.98 771.441 2911.98 783.928 2908.16 791.613 2900.52 798.336 2893.83 801.218 2886.19 802.178 2876.64 799.297 2870.91 795.455 2863.27 786.81 2858.5 777.205 2855.63 768.56 2856.59 763.757 2868.05 755.113 2872.82 756.073 2872.82 761.836 2869.96 765.679 2868.05 771.441 2868.05 778.165 2872.82 787.77 2878.55 791.613 2886.19 792.573 2891.92 789.692 2892.88 787.77 2892.88 775.284 2889.06 757.034 2889.06 748.389 2892.88 739.744 2897.65 733.981 2904.34 730.139Z" fill="#FDFDFC" fill-rule="evenodd"/><path d="M1501.33 660.153 1506.14 660.153 1516.74 667.867 1518.66 671.725 1517.7 673.653 1510.96 673.653 1502.29 672.689 1495.55 674.618 1490.74 680.403 1489.77 682.332 1489.77 690.046 1494.59 694.868 1500.37 695.832 1510 691.975 1518.66 686.189 1532.14 681.368 1538.88 681.368 1546.59 684.261 1555.26 691.975 1559.11 699.689 1559.11 711.261 1555.26 721.868 1547.55 731.511 1536.96 739.225 1534.07 741.153 1530.22 740.189 1518.66 731.511 1519.63 726.689 1525.4 725.725 1528.29 726.689 1538.88 726.689 1546.59 721.868 1550.44 716.082 1551.4 713.189 1551.4 706.439 1548.51 700.654 1543.7 698.725 1536 699.689 1523.48 706.439 1511.92 712.225 1509.03 713.189 1499.4 713.189 1491.7 710.296 1484.96 704.511 1481.11 695.832 1481.11 684.261 1485.92 674.618 1494.59 664.975Z" fill="#FDFEFD" fill-rule="evenodd"/><path d="M1451.43 725.177 1458.17 726.14 1467.81 731.918 1468.77 736.733 1467.81 737.696 1453.36 737.696 1445.65 741.548 1442.76 746.363 1442.76 755.992 1446.61 759.844 1448.54 760.807 1454.32 760.807 1462.03 756.955 1473.59 748.288 1481.3 744.437 1485.15 743.474 1493.82 743.474 1503.45 748.288 1510.2 755.029 1513.09 761.77 1513.09 774.288 1509.23 784.881 1498.64 797.4 1490.93 803.178 1487.08 802.214 1474.55 794.511 1475.52 789.696 1477.44 788.733 1492.86 788.733 1498.64 785.844 1501.53 784.881 1503.45 781.029 1505.38 776.214 1505.38 765.622 1500.56 760.807 1490.93 760.807 1480.33 767.548 1470.7 774.288 1464.92 777.177 1460.1 778.141 1453.36 778.141 1444.69 775.252 1438.91 770.437 1434.09 760.807 1434.09 748.288 1439.87 736.733Z" fill="#FDFEFD" fill-rule="evenodd"/><path d="M1739.96 463.078 1745.72 464.033 1754.35 477.411 1753.39 480.278 1747.63 480.278 1738.05 474.545 1731.33 474.545 1723.66 478.367 1720.79 484.1 1721.74 490.789 1725.58 494.611 1728.46 495.567 1736.13 495.567 1752.43 492.7 1762.02 492.7 1771.61 496.523 1777.36 503.211 1781.2 511.811 1781.2 522.323 1776.4 531.878 1771.61 537.611 1761.06 544.3 1745.72 549.078 1740.92 546.211 1734.21 535.7 1735.17 530.923 1740.92 531.878 1749.55 536.656 1759.14 536.656 1766.81 532.833 1770.65 528.056 1772.57 523.278 1771.61 516.589 1767.77 512.767 1764.9 511.811 1756.26 511.811 1738.05 514.678 1729.42 514.678 1721.74 511.811 1714.07 504.167 1711.2 497.478 1711.2 485.056 1715.03 477.411 1721.74 470.722 1733.25 464.989Z" fill="#FDFDFC" fill-rule="evenodd"/><path d="M2090 349.036 2095.79 349.036 2096.76 352.898 2092.9 355.794 2085.18 358.691 2086.14 374.139 2090.97 419.519 2090.97 423.381 2113.17 420.484 2121.85 416.622 2124.75 415.657 2126.68 411.795 2130.54 403.105 2135.36 402.14 2136.33 405.036 2136.33 425.312 2134.4 426.277 2082.28 431.105 2068.77 433.036 2061.05 433.036 2060.09 429.174 2064.91 426.277 2072.63 425.312 2066.84 365.45 2065.88 361.588 2055.26 358.691 2053.33 356.76 2053.33 353.864 2055.26 352.898Z" fill="#FDFDFC" fill-rule="evenodd"/><path d="M2852.15 1728.55 2864.72 1728.55 2876.32 1733.36 2887.92 1742.02 2893.72 1749.71 2896.62 1756.44 2896.62 1764.13 2892.75 1771.82 2886.95 1776.63 2882.12 1778.56 2871.49 1778.56 2861.82 1774.71 2851.19 1767.02 2845.39 1762.21 2839.59 1753.55 2838.62 1750.67 2838.62 1742.98 2841.52 1736.25 2848.29 1730.48Z" fill="#083254" fill-rule="evenodd"/><path d="M1506.91 1719.55 1515.61 1719.55 1523.34 1723.4 1529.14 1731.1 1530.11 1740.72 1527.21 1749.38 1520.44 1757.08 1506.91 1766.7 1497.24 1770.55 1486.61 1770.55 1479.84 1766.7 1474.04 1759.97 1472.11 1753.23 1474.04 1744.57 1481.78 1733.99 1491.44 1726.29 1503.04 1720.51Z" fill="#083254" fill-rule="evenodd"/><path d="M2952.21 1563.49 2966.72 1563.49 2980.27 1568.28 2989.95 1574.02 2996.72 1581.68 2998.66 1587.43 2997.69 1597 2993.82 1602.75 2988.98 1606.58 2984.14 1608.49 2972.53 1608.49 2960.92 1605.62 2949.3 1599.87 2940.59 1592.21 2938.66 1588.38 2938.66 1576.89 2942.53 1570.19 2950.27 1564.45Z" fill="#083254" fill-rule="evenodd"/><path d="M2377.59 2027.66 2382.4 2029.56 2392.01 2040.96 2405.48 2059.01 2417.98 2076.11 2422.78 2081.81 2428.55 2081.81 2431.44 2083.71 2431.44 2086.56 2421.82 2088.46 2402.59 2093.21 2395.86 2093.21 2397.78 2089.41 2403.55 2086.56 2405.48 2086.56 2395.86 2073.26 2394.9 2072.31 2385.28 2073.26 2376.63 2075.16 2374.71 2078.96 2373.74 2092.26 2383.36 2093.21 2383.36 2097.01 2377.59 2098.91 2365.09 2101.76 2358.36 2103.66 2356.44 2100.81 2361.24 2097.01 2364.13 2096.06 2367.01 2080.86 2373.74 2034.31 2375.67 2028.61Z" fill="#FDFEFD" fill-rule="evenodd"/><path d="M1991.21 2027.66 1995.06 2028.61 1996.98 2033.36 2003.71 2077.06 2006.6 2095.11 2014.29 2100.81 2013.33 2103.66 2006.6 2102.71 1979.68 2096.06 1978.71 2092.26 1989.29 2091.31 1987.37 2073.26 1975.83 2071.36 1967.18 2070.41 1960.45 2079.91 1958.52 2085.61 1965.25 2087.51 1966.21 2092.26 1958.52 2091.31 1947.95 2088.46 1939.29 2086.56 1940.25 2082.76 1949.87 2081.81 1963.33 2063.76 1978.71 2042.86 1989.29 2028.61Z" fill="#FDFDFC" fill-rule="evenodd"/><path d="M1642.42 1849.6 1648.2 1849.6 1649.16 1850.56 1648.2 1858.26 1635.69 1892.91 1627.02 1916.01 1630.87 1925.64 1627.02 1926.6 1621.25 1921.79 1616.44 1916.98 1608.74 1910.24 1602 1904.46 1602.96 1901.58 1614.51 1905.43 1617.4 1895.8 1619.32 1888.1 1606.81 1876.55 1602 1877.51 1591.41 1883.29 1591.41 1887.14 1594.3 1891.95 1594.3 1894.84 1589.49 1893.88 1580.82 1885.21 1572.16 1879.44 1573.12 1875.59 1577.94 1876.55 1582.75 1878.48 1594.3 1873.66 1609.7 1865.96 1624.14 1858.26Z" fill="#FDFEFD" fill-rule="evenodd"/><path d="M2326.74 2038.67 2331.51 2039.63 2333.42 2049.25 2333.42 2055.03 2328.65 2055.03 2321.97 2047.33 2310.52 2048.29 2300.03 2050.22 2298.12 2051.18 2300.03 2068.49 2300.03 2073.31 2318.15 2070.42 2321.97 2069.46 2322.92 2060.8 2327.69 2059.84 2328.65 2060.8 2330.55 2078.11 2330.55 2083.89 2325.78 2082.93 2322.92 2078.11 2312.43 2078.11 2302.89 2079.08 2301.94 2081 2305.75 2103.13 2306.71 2104.09 2316.25 2105.05 2317.2 2109.86 2315.29 2110.82 2291.45 2113.71 2286.68 2114.67 2280 2114.67 2280.95 2110.82 2289.54 2106.98 2281.91 2055.03 2281.91 2052.14 2274.28 2052.14 2271.41 2050.22 2271.41 2047.33 2274.28 2046.37 2300.03 2043.48 2323.88 2039.63Z" fill="#FDFEFD" fill-rule="evenodd"/><path d="M2755.4 1821.59 2760.18 1822.56 2770.69 1834.16 2771.64 1839 2765.91 1839 2761.13 1837.07 2754.44 1838.03 2746.8 1844.8 2749.66 1849.64 2778.33 1880.58 2782.15 1884.45 2787.89 1882.52 2794.58 1881.55 2793.62 1885.42 2782.15 1895.09 2774.51 1901.86 2766.86 1909.59 2764 1908.63 2764.95 1902.82 2768.78 1897.02 2766.86 1892.19 2751.58 1875.75 2742.98 1866.08 2734.38 1857.37 2730.55 1859.31 2722.91 1866.08 2721 1868.98 2720.04 1881.55 2716.22 1881.55 2708.58 1867.04 2708.58 1863.18 2718.13 1861.24 2731.51 1848.67 2739.15 1841.9 2752.53 1830.3 2754.44 1828.36Z" fill="#FDFDFC" fill-rule="evenodd"/><path d="M1690.11 1885.61 1693.98 1886.57 1695.91 1893.25 1718.15 1908.54 1733.61 1919.05 1736.51 1920.97 1744.25 1920.97 1746.18 1923.83 1738.45 1933.39 1733.61 1940.08 1729.75 1938.17 1729.75 1931.48 1730.71 1926.7 1726.85 1922.88 1720.08 1918.1 1716.21 1919.05 1705.58 1934.34 1693.01 1951.54 1687.21 1959.19 1688.18 1963.01 1692.05 1967.79 1692.05 1971.61 1687.21 1970.65 1673.68 1960.14 1661.11 1952.5 1659.18 1950.59 1659.18 1947.72 1663.05 1946.77 1670.78 1949.63 1674.65 1948.68 1687.21 1932.43 1699.78 1915.23 1703.65 1909.5 1703.65 1906.63 1693.98 1899.94 1691.08 1898.99 1684.31 1898.99 1676.58 1899.94 1675.61 1897.08 1679.48 1893.25Z" fill="#FDFEFD" fill-rule="evenodd"/><path d="M2491.99 1989.66 2495.83 1990.62 2501.6 2006.07 2500.64 2010.9 2496.8 2009.93 2491.03 2004.14 2482.39 2005.1 2474.7 2007.03 2481.43 2027.31 2492.95 2057.24 2496.8 2058.21 2502.56 2057.24 2504.48 2058.21 2503.52 2063.04 2480.47 2069.79 2471.82 2073.66 2467.02 2073.66 2467.98 2069.79 2475.66 2064 2474.7 2056.28 2465.1 2029.24 2460.3 2016.69 2460.3 2013.79 2447.81 2017.66 2442.05 2020.55 2437.24 2031.17 2433.4 2031.17 2432.44 2029.24 2431.48 2011.86 2432.44 2010.9 2437.24 2010.9 2438.2 2011.86 2445.89 2010.9 2471.82 2001.24 2485.27 1996.41 2489.11 1996.41 2491.03 1990.62Z" fill="#FDFDFC" fill-rule="evenodd"/><path d="M2627.93 464.078 2632.74 464.078 2642.35 470.771 2661.57 482.243 2662.53 486.067 2657.73 487.023 2651 485.112 2648.12 485.112 2646.19 490.848 2631.78 514.749 2624.09 527.177 2618.32 536.738 2618.32 541.518 2623.13 545.342 2624.09 550.122 2620.24 551.079 2605.83 541.518 2589.49 532.914 2588.53 529.09 2589.49 528.133 2601.02 529.09 2606.79 520.485 2622.17 495.628 2632.74 478.419 2633.7 473.639 2626.97 467.903Z" fill="#FDFDFC" fill-rule="evenodd"/><path d="M2958.41 789.201 2963.25 790.16 2972.92 809.349 2980.66 821.822 2979.69 824.701 2974.86 823.742 2970.02 818.944 2963.25 819.904 2925.52 841.012 2911.97 848.688 2914.88 856.363 2913.91 860.201 2909.07 860.201 2901.33 844.85 2894.56 833.336 2891.66 828.539 2891.66 825.661 2894.56 824.701 2902.3 831.417 2909.07 829.498 2929.39 817.985 2947.77 808.39 2959.38 801.674 2958.41 796.876 2957.44 790.16Z" fill="#FDFDFC" fill-rule="evenodd"/><path d="M3077.07 1155.34 3081.83 1156.29 3083.74 1182.15 3084.69 1194.59 3080.88 1194.59 3078.02 1190.76 3076.11 1185.02 3044.65 1186.93 3018.9 1188.85 3012.23 1188.85 3011.28 1199.38 3010.32 1200.34 3005.55 1200.34 3004.6 1198.42 3004.6 1185.98 3003.65 1171.61 3002.69 1161.08 3007.46 1162.04 3011.28 1170.66 3033.21 1169.7 3062.76 1167.78 3075.16 1165.87 3076.11 1156.29Z" fill="#FDFDFC" fill-rule="evenodd"/><path d="M2157.16 346.034 2192.4 346.034 2192.4 350.796 2181.92 354.606 2182.87 418.415 2192.4 419.367 2193.35 420.32 2193.35 425.082 2172.4 425.082 2155.26 426.034 2154.3 422.224 2159.06 419.367 2164.78 418.415 2163.83 353.653 2154.3 351.749 2153.35 346.986Z" fill="#FDFDFC" fill-rule="evenodd"/><path d="M1875.09 1993.66 1881.82 1994.62 1901.06 2002.34 1907.79 2005.23 1907.79 2008.13 1897.21 2008.13 1902.02 2026.46 1903.94 2039 1917.4 2030.32 1928.94 2021.63 1930.86 2017.77 1927.02 2015.85 1925.09 2011.99 1927.98 2011.02 1946.25 2017.77 1946.25 2021.63 1936.63 2023.56 1920.29 2035.14 1908.75 2042.86 1905.86 2046.72 1899.13 2065.04 1899.13 2068.9 1904.9 2069.87 1906.82 2071.8 1905.86 2075.66 1900.09 2074.69 1885.67 2068.9 1872.21 2065.04 1871.25 2061.19 1872.21 2060.22 1882.79 2061.19 1889.52 2042.86 1882.79 2012.95 1878.94 2000.41 1875.09 1996.55Z" fill="#FDFEFD" fill-rule="evenodd"/><path d="M2158.54 2050.67 2168.13 2050.67 2178.68 2052.59 2181.56 2054.51 2182.52 2060.27 2182.52 2069.86 2177.72 2070.82 2171.97 2061.23 2171.97 2059.31 2165.25 2057.39 2156.62 2058.35 2152.78 2061.23 2152.78 2068.9 2158.54 2073.7 2177.72 2082.34 2184.44 2088.09 2186.35 2092.89 2186.35 2105.36 2183.48 2111.12 2178.68 2115.92 2171.01 2120.72 2166.21 2121.67 2156.62 2121.67 2144.15 2118.8 2139.35 2114 2140.31 2100.57 2145.11 2100.57 2150.86 2110.16 2155.66 2114 2158.54 2114.96 2167.17 2114.96 2172.93 2112.08 2175.8 2108.24 2175.8 2101.53 2171.01 2097.69 2149.9 2088.09 2144.15 2083.3 2140.31 2074.66 2140.31 2066.99 2145.11 2057.39 2153.74 2051.63Z" fill="#FDFDFC" fill-rule="evenodd"/><path d="M2682.47 1887.61 2687.25 1888.55 2694.89 1896.13 2695.85 1900.87 2692.03 1901.82 2685.34 1898.97 2674.83 1898.97 2670.06 1901.82 2668.15 1905.61 2668.15 1911.29 2672.92 1916.03 2679.61 1916.03 2699.67 1911.29 2707.31 1911.29 2714.95 1915.08 2720.68 1921.71 2723.55 1929.29 2722.59 1937.82 2716.86 1947.29 2710.17 1952.97 2700.62 1957.71 2695.85 1959.61 2691.07 1958.66 2684.38 1951.08 2683.43 1945.39 2690.12 1946.34 2694.89 1948.24 2705.4 1948.24 2711.13 1944.45 2714.95 1939.71 2714.95 1931.18 2711.13 1927.4 2702.53 1927.4 2681.52 1932.13 2671.97 1931.18 2666.23 1927.4 2661.46 1921.71 2659.55 1916.97 2659.55 1907.5 2663.37 1899.92 2671.01 1893.29Z" fill="#FDFDFC" fill-rule="evenodd"/><path d="M1767.15 1943.63 1776.86 1943.63 1786.56 1947.46 1794.33 1953.21 1794.33 1955.13 1798.21 1957.04 1797.24 1962.79 1792.39 1971.41 1788.5 1972.37 1787.53 1971.41 1786.56 1958 1781.71 1952.25 1772.97 1950.34 1767.15 1953.21 1766.18 1959.91 1769.09 1965.66 1779.77 1978.11 1783.65 1985.77 1783.65 1996.31 1776.86 2006.84 1771.03 2010.68 1767.15 2011.63 1754.53 2011.63 1745.8 2007.8 1739.97 2003.97 1733.18 1997.27 1732.21 1991.52 1738.03 1981.94 1741.92 1980.99 1742.89 1981.94 1743.86 1994.39 1747.74 2001.1 1755.5 2004.93 1764.24 2004.93 1769.09 2001.1 1769.09 1993.44 1765.21 1987.69 1755.5 1976.2 1751.62 1967.58 1751.62 1959.91 1754.53 1952.25 1762.3 1945.55Z" fill="#FDFDFC" fill-rule="evenodd"/><path d="M1560.81 1767.56 1564.62 1769.46 1576.98 1783.71 1585.54 1791.31 1587.45 1795.11 1586.49 1796.06 1581.74 1796.06 1578.88 1793.21 1575.08 1792.26 1570.32 1799.86 1556.05 1830.26 1572.23 1824.56 1595.05 1815.06 1594.1 1809.36 1592.2 1806.51 1593.15 1801.76 1597.91 1804.61 1605.52 1814.11 1612.18 1819.81 1613.13 1822.66 1608.37 1823.61 1604.57 1821.71 1597.91 1821.71 1578.88 1828.36 1551.3 1838.81 1539.88 1843.56 1535.13 1842.61 1535.13 1836.91 1542.74 1821.71 1556.05 1794.16 1562.71 1779.91 1561.76 1775.16 1559.86 1769.46Z" fill="#FDFDFC" fill-rule="evenodd"/><path d="M3026.35 1468.46 3031.18 1469.41 3043.75 1474.21 3045.68 1477.08 3036.98 1501.04 3032.15 1515.41 3026.35 1536.5 3022.48 1537.46 3021.52 1536.5 3022.48 1524.04 3010.88 1521.16 2975.12 1510.62 2968.35 1510.62 2962.55 1517.33 2958.68 1517.33 2959.65 1510.62 2965.45 1493.37 2968.35 1482.83 2972.22 1481.87 2973.18 1482.83 2974.15 1493.37 3002.18 1502 3028.28 1509.66 3031.18 1499.12 3033.12 1491.46 3033.12 1482.83 3031.18 1477.08 3027.32 1475.16 3024.42 1472.29Z" fill="#FDFDFC" fill-rule="evenodd"/><path d="M2238.94 2050.67 2246.53 2050.67 2246.53 2054.51 2238 2057.38 2239.89 2103.38 2239.89 2112.97 2247.48 2112.97 2249.38 2113.92 2249.38 2118.72 2215.23 2119.67 2216.17 2115.84 2220.92 2113.92 2223.76 2113.92 2223.76 2099.55 2222.82 2072.72 2221.87 2057.38 2213.33 2057.38 2212.38 2052.59 2214.28 2051.63Z" fill="#FDFEFD" fill-rule="evenodd"/><path d="M1826.82 1970.65 1832.54 1971.61 1859.23 1985.08 1857.32 1987.96 1846.84 1987.96 1831.59 2019.71 1823.01 2037.99 1828.73 2039.91 1829.68 2040.87 1829.68 2045.68 1827.77 2046.65 1817.29 2040.87 1799.18 2033.18 1798.23 2029.33 1802.99 2028.37 1808.71 2029.33 1811.57 2025.48 1832.54 1981.23 1832.54 1979.3 1826.82 1975.46 1825.87 1971.61Z" fill="#FDFDFC" fill-rule="evenodd"/><path d="M2799.69 1781.57 2802.57 1783.49 2801.61 1788.29 2799.69 1791.17 2800.65 1795.01 2819.86 1812.28 2831.38 1822.83 2838.11 1828.59 2842.91 1828.59 2845.79 1825.71 2850.6 1826.67 2848.67 1830.51 2839.07 1839.14 2829.46 1851.61 2826.58 1852.57 2825.62 1851.61 2825.62 1846.82 2827.54 1843.94 2826.58 1839.14 2816.02 1829.55 2808.33 1822.83 2793.92 1809.4 2789.12 1805.56 2784.32 1806.52 2782.4 1808.44 2777.6 1808.44 2777.6 1804.6 2792.96 1789.25Z" fill="#FDFEFD" fill-rule="evenodd"/><path d="M2628.67 1924.63 2631.58 1925.59 2630.61 1929.44 2626.73 1933.28 2627.7 1938.09 2639.34 1956.36 2653.89 1979.44 2653.89 1981.36 2660.69 1979.44 2665.54 1979.44 2664.57 1984.24 2646.13 1993.86 2640.31 1998.67 2636.43 1999.63 2634.49 1997.71 2639.34 1991.94 2638.37 1985.21 2625.76 1965.01 2616.06 1948.67 2612.18 1943.86 2606.36 1944.82 2603.45 1945.78 2600.54 1942.9 2605.39 1938.09 2620.91 1929.44Z" fill="#FDFDFC" fill-rule="evenodd"/><path d="M1398.56 1453.44 1402.41 1454.38 1405.3 1462.87 1410.11 1478.88 1411.07 1485.48 1406.26 1484.54 1402.41 1478.88 1391.83 1480.77 1348.54 1492.08 1346.61 1492.08 1347.57 1494.9 1347.57 1501.5 1343.73 1502.44 1340.84 1493.96 1336.03 1476.06 1335.07 1470.4 1339.88 1471.35 1342.76 1475.12 1342.76 1477 1362.97 1472.29 1389.9 1465.69 1398.56 1463.81 1397.6 1455.33Z" fill="#FDFDFC" fill-rule="evenodd"/><path d="M2932.24 1663.53 2939.03 1663.53 2946.8 1667.4 2951.65 1673.2 2951.65 1680.93 2948.74 1688.67 2944.86 1692.53 2940 1691.57 2919.62 1679.97 2918.65 1678.03 2924.48 1668.37 2929.33 1664.5Z" fill="#083254" fill-rule="evenodd"/><path d="M2861.95 662.155 2865.83 664.092 2871.65 672.811 2872.62 679.592 2869.71 685.405 2865.83 690.249 2860.01 693.155 2853.21 693.155 2845.45 688.311 2839.62 682.499 2841.57 678.624 2852.24 669.905Z" fill="#083254" fill-rule="evenodd"/><path d="M1304.34 1141.33 1314.66 1141.33 1321.22 1145.17 1324.03 1151.89 1324.03 1160.53 1323.09 1165.33 1309.03 1164.37 1294.97 1162.45 1294.03 1161.49 1294.97 1151.89 1298.72 1144.21Z" fill="#083254" fill-rule="evenodd"/><path d="M2014.9 356.038 2020.6 356.993 2024.4 359.856 2026.3 365.584 2025.35 389.447 2023.45 398.038 2018.7 393.266 2008.25 371.311 2007.3 362.72 2012.05 356.993Z" fill="#FDFEFD" fill-rule="evenodd"/><path d="M2905.17 1650.53 2910.96 1650.53 2917.71 1654.37 2919.64 1657.26 2919.64 1665.91 2914.82 1675.53 2909.03 1673.6 2894.57 1665.91 2892.64 1663.03 2898.42 1654.37 2902.28 1651.49Z" fill="#083254" fill-rule="evenodd"/><path d="M1564.14 626.138 1573.14 628.996 1586.14 634.71 1584.14 638.519 1576.14 646.138 1572.14 646.138 1564.14 628.996Z" fill="#083254" fill-rule="evenodd"/><path d="M1943.15 403.056 1945.03 403.056 1954.44 415.491 1957.27 419.317 1957.27 422.186 1945.97 425.056 1941.27 425.056 1942.21 408.795Z" fill="#083254" fill-rule="evenodd"/><path d="M1627.16 1863.63 1630.16 1864.63 1624.16 1880.63 1622.16 1882.63 1619.16 1880.63 1619.16 1878.63 1615.16 1876.63 1611.16 1871.63Z" fill="#083254" fill-rule="evenodd"/><path d="M2379.22 2050.67 2382.02 2051.61 2390.43 2063.93 2389.49 2066.77 2382.02 2068.67 2376.42 2068.67 2378.29 2051.61Z" fill="#083254" fill-rule="evenodd"/><path d="M1982.3 2047.67 1984.3 2048.62 1986.3 2066.67 1977.3 2065.72 1971.3 2063.82 1976.3 2055.27Z" fill="#083254" fill-rule="evenodd"/></g></svg>